<svg xmlns="http://www.w3.org/2000/svg" viewBox="0 0 219.97 68.84"><defs><style>.cls-1{fill:#ff5a60;}.cls-2{fill:#fff;}</style></defs><title>logo01</title><g id="Capa_2" data-name="Capa 2"><g id="Capa_2-2" data-name="Capa 2"><rect class="cls-1" y="0.78" width="57" height="61.32"/><path class="cls-2" d="M49.56,13.1c-5.23,0-8.18,1.82-8.18,10.9H38.89v4.77h2.49V42.39a3.33,3.33,0,0,1-3.63,3v4.54h2.5c1.81,0,5.67-4.31,5.67-7.26V28.77h2.5V24h-2.5V20.37s.68-2.73,2.5-2.73h1.14Z"/><path class="cls-2" d="M6.46,43.3h4.76v-12c0-3.17,7.27-3.4,7.27,0v12h4.77v-12c.22-3.63,7.49-3.63,7.49,0v12h4.76v-12s-1.13-7.49-7-7.49S21.67,26.5,21,26.5s-1.58-2.73-6.12-2.73a9.16,9.16,0,0,0-7.95,4.77,3.73,3.73,0,0,0-.45,1.13Z"/><path d="M74.87,27.35,68.68,7.19h-.16q.33,6.15.33,8.21v12H64V1.65H71.4L77.48,21.3h.11L84,1.65h7.42v25.7H86.38V15.19c0-.58,0-1.24,0-2s.09-2.74.23-6h-.16L79.86,27.35Z"/><path d="M106.4,27.7A10.14,10.14,0,0,1,99,25.08q-2.67-2.61-2.67-7.41c0-3.3.82-5.84,2.47-7.64a8.79,8.79,0,0,1,6.83-2.7A8.67,8.67,0,0,1,112.1,9.7a9,9,0,0,1,2.32,6.56v2.6H101.74a5.16,5.16,0,0,0,1.36,3.57,4.73,4.73,0,0,0,3.55,1.28,14.45,14.45,0,0,0,3.35-.37,16.27,16.27,0,0,0,3.31-1.17v4.14a12.62,12.62,0,0,1-3,1.05A18.77,18.77,0,0,1,106.4,27.7Zm-.76-16.56A3.39,3.39,0,0,0,103,12.23a5,5,0,0,0-1.1,3.06h7.52a4.43,4.43,0,0,0-1-3.06A3.49,3.49,0,0,0,105.64,11.14Z"/><path d="M136.37,27.35H131V15.87a5.84,5.84,0,0,0-.71-3.19,2.5,2.5,0,0,0-2.24-1.06,3.24,3.24,0,0,0-3,1.51,10,10,0,0,0-.93,5v9.24h-5.36V7.7h4.09l.72,2.51h.3a5.47,5.47,0,0,1,2.29-2.12,7.36,7.36,0,0,1,3.42-.76c2.94,0,4.94,1,6,2.88h.47a5.34,5.34,0,0,1,2.33-2.12,7.73,7.73,0,0,1,3.48-.76,6.86,6.86,0,0,1,5,1.71q1.71,1.73,1.71,5.5V27.35h-5.38V15.87a5.76,5.76,0,0,0-.71-3.19,2.49,2.49,0,0,0-2.24-1.06A3.34,3.34,0,0,0,137.35,13a7.94,7.94,0,0,0-1,4.46Z"/><path d="M172,17.49A10.57,10.57,0,0,1,169.45,25a9.17,9.17,0,0,1-7,2.7,9.83,9.83,0,0,1-5-1.24,8.18,8.18,0,0,1-3.32-3.56,12,12,0,0,1-1.16-5.41q0-4.81,2.51-7.49a9.24,9.24,0,0,1,7.07-2.67,9.9,9.9,0,0,1,5,1.23,8.21,8.21,0,0,1,3.32,3.53A11.8,11.8,0,0,1,172,17.49Zm-13.58,0a8.3,8.3,0,0,0,.95,4.41,3.42,3.42,0,0,0,3.12,1.5,3.39,3.39,0,0,0,3.09-1.49,8.33,8.33,0,0,0,.94-4.42,8.16,8.16,0,0,0-.95-4.38,4,4,0,0,0-6.2,0A8.06,8.06,0,0,0,158.4,17.49Z"/><path d="M187.38,7.33a8.31,8.31,0,0,1,1.81.16l-.4,5a6,6,0,0,0-1.58-.18,5.68,5.68,0,0,0-4,1.32,4.75,4.75,0,0,0-1.43,3.69v10h-5.37V7.7h4.06l.8,3.3h.26A7.34,7.34,0,0,1,184,8.34,6.11,6.11,0,0,1,187.38,7.33Z"/><path d="M192.53,2.62c0-1.75,1-2.62,2.92-2.62s2.92.87,2.92,2.62a2.53,2.53,0,0,1-.73,1.94,3.1,3.1,0,0,1-2.19.7C193.51,5.26,192.53,4.38,192.53,2.62Zm5.59,24.73h-5.36V7.7h5.36Z"/><path d="M216.23,27.35l-1-2.67h-.14A7.82,7.82,0,0,1,212.26,27a9,9,0,0,1-3.73.66,6.08,6.08,0,0,1-4.46-1.61,6.24,6.24,0,0,1-1.62-4.61,5.17,5.17,0,0,1,2.19-4.61q2.18-1.48,6.6-1.65l3.41-.1v-.86c0-2-1-3-3.06-3a13.92,13.92,0,0,0-5.54,1.42l-1.77-3.62a16,16,0,0,1,7.52-1.78A9.33,9.33,0,0,1,217.86,9,6.35,6.35,0,0,1,220,14.26V27.35Zm-1.58-9.1-2.08.07a6.53,6.53,0,0,0-3.48.84A2.66,2.66,0,0,0,208,21.52c0,1.51.87,2.26,2.6,2.26a4.1,4.1,0,0,0,3-1.07,3.77,3.77,0,0,0,1.12-2.85Z"/><path d="M64.23,62.35V46.76l-2.45-.16c-.34,0-.51-.17-.51-.44v-.68h3v-2.2a8,8,0,0,1,.39-2.62,5.16,5.16,0,0,1,1.08-1.88,4.45,4.45,0,0,1,1.69-1.13,6.12,6.12,0,0,1,2.18-.38,6.7,6.7,0,0,1,1.09.1,4.13,4.13,0,0,1,1,.27l0,.81q0,.24-.33.24a5.07,5.07,0,0,1-.57,0,5.57,5.57,0,0,0-.88,0,4.82,4.82,0,0,0-1.59.25,3.15,3.15,0,0,0-1.25.81,3.77,3.77,0,0,0-.81,1.47,7.36,7.36,0,0,0-.29,2.21v2.15h5.65v1.24H65.9V62.35Z"/><path d="M81.49,44.66a8.31,8.31,0,0,1,3.35.64,6.76,6.76,0,0,1,2.49,1.81,8,8,0,0,1,1.55,2.83,13.15,13.15,0,0,1,0,7.39,8,8,0,0,1-1.55,2.82A6.74,6.74,0,0,1,84.84,62a9.22,9.22,0,0,1-6.7,0,6.89,6.89,0,0,1-2.51-1.8,7.86,7.86,0,0,1-1.55-2.82,12.91,12.91,0,0,1,0-7.39,7.82,7.82,0,0,1,1.55-2.83,6.92,6.92,0,0,1,2.51-1.81A8.27,8.27,0,0,1,81.49,44.66Zm0,16.61a6.41,6.41,0,0,0,2.72-.54,5.09,5.09,0,0,0,1.94-1.53,6.63,6.63,0,0,0,1.16-2.4,13,13,0,0,0,0-6.31,6.69,6.69,0,0,0-1.16-2.43,5.34,5.34,0,0,0-1.94-1.55,7.12,7.12,0,0,0-5.44,0,5.29,5.29,0,0,0-2,1.55,6.87,6.87,0,0,0-1.17,2.43,13,13,0,0,0,0,6.31,6.81,6.81,0,0,0,1.17,2.4,5,5,0,0,0,2,1.53A6.38,6.38,0,0,0,81.49,61.27Z"/><path d="M98.53,62.63a3.7,3.7,0,0,1-2.75-1,4.13,4.13,0,0,1-1-3V46.72H92.3a.45.45,0,0,1-.31-.1.35.35,0,0,1-.13-.3v-.65l3-.21.41-6.23a.65.65,0,0,1,.13-.28.41.41,0,0,1,.31-.12h.78v6.65h5.47v1.24H96.47V58.54a3.71,3.71,0,0,0,.18,1.23,2.25,2.25,0,0,0,.51.85,2,2,0,0,0,.76.49,2.9,2.9,0,0,0,.94.16,2.76,2.76,0,0,0,1.09-.19,4.48,4.48,0,0,0,.79-.4,6.35,6.35,0,0,0,.54-.4.64.64,0,0,1,.33-.19.36.36,0,0,1,.28.18l.46.73a5,5,0,0,1-1.69,1.19A5.38,5.38,0,0,1,98.53,62.63Z"/><path d="M112.9,44.66a8.31,8.31,0,0,1,3.35.64,6.68,6.68,0,0,1,2.49,1.81,7.82,7.82,0,0,1,1.55,2.83,12.91,12.91,0,0,1,0,7.39,7.86,7.86,0,0,1-1.55,2.82,6.66,6.66,0,0,1-2.49,1.8,9.22,9.22,0,0,1-6.7,0,6.89,6.89,0,0,1-2.51-1.8,7.86,7.86,0,0,1-1.55-2.82,12.91,12.91,0,0,1,0-7.39A7.82,7.82,0,0,1,107,47.11a6.92,6.92,0,0,1,2.51-1.81A8.27,8.27,0,0,1,112.9,44.66Zm0,16.61a6.41,6.41,0,0,0,2.72-.54,5,5,0,0,0,1.94-1.53,6.81,6.81,0,0,0,1.17-2.4,13.29,13.29,0,0,0,0-6.31,6.87,6.87,0,0,0-1.17-2.43,5.26,5.26,0,0,0-1.94-1.55,7.12,7.12,0,0,0-5.44,0,5.29,5.29,0,0,0-2,1.55,7,7,0,0,0-1.17,2.43,13,13,0,0,0,0,6.31,7,7,0,0,0,1.17,2.4,5,5,0,0,0,2,1.53A6.38,6.38,0,0,0,112.9,61.27Z"/><path d="M130.94,44.64a7.48,7.48,0,0,1,2.11.28,6.29,6.29,0,0,1,1.74.79h4.46v.58c0,.29-.16.45-.49.47l-2.64.19a4.91,4.91,0,0,1,.75,1.5,5.93,5.93,0,0,1-.19,4.06,5.15,5.15,0,0,1-1.27,1.75,5.85,5.85,0,0,1-1.95,1.13,7.48,7.48,0,0,1-2.52.4,7.67,7.67,0,0,1-2.73-.46,3.66,3.66,0,0,0-1.15,1,1.93,1.93,0,0,0-.42,1.12,1.38,1.38,0,0,0,.52,1.16,3.35,3.35,0,0,0,1.39.58,12.19,12.19,0,0,0,2,.24l2.26.11c.76,0,1.51.12,2.25.22a7.43,7.43,0,0,1,2,.55,3.48,3.48,0,0,1,1.39,1.11,3.06,3.06,0,0,1,.53,1.88,4.33,4.33,0,0,1-.54,2.08,5.8,5.8,0,0,1-1.57,1.77,8.33,8.33,0,0,1-2.48,1.23,10.63,10.63,0,0,1-3.25.46,12.34,12.34,0,0,1-3.22-.37,7.53,7.53,0,0,1-2.32-1A4.49,4.49,0,0,1,124.15,66a3.62,3.62,0,0,1-.47-1.78,3.39,3.39,0,0,1,.91-2.38,5.76,5.76,0,0,1,2.5-1.54,3.23,3.23,0,0,1-1.39-.86,2.18,2.18,0,0,1-.52-1.56,2.47,2.47,0,0,1,.14-.77,3.79,3.79,0,0,1,.42-.79,4.71,4.71,0,0,1,.68-.75,5,5,0,0,1,.92-.63A5.13,5.13,0,0,1,125.4,53a5.47,5.47,0,0,1-.69-2.79,5.59,5.59,0,0,1,.45-2.28,4.91,4.91,0,0,1,1.26-1.76,5.7,5.7,0,0,1,2-1.14A7.93,7.93,0,0,1,130.94,44.64Zm6.46,18.88A2,2,0,0,0,137,62.2a2.93,2.93,0,0,0-1.15-.78,7.4,7.4,0,0,0-1.65-.39c-.62-.08-1.28-.13-2-.17l-2.06-.1a17.62,17.62,0,0,1-1.92-.21,8.39,8.39,0,0,0-1.24.6,5.06,5.06,0,0,0-1,.77,3.28,3.28,0,0,0-.63.95,2.78,2.78,0,0,0-.22,1.13,2.71,2.71,0,0,0,.39,1.42,3.48,3.48,0,0,0,1.15,1.14,6.57,6.57,0,0,0,1.87.76,10.17,10.17,0,0,0,2.54.28,9.72,9.72,0,0,0,2.47-.3,6.48,6.48,0,0,0,2-.84,4.32,4.32,0,0,0,1.33-1.29A3,3,0,0,0,137.4,63.52Zm-6.46-8.87a5.91,5.91,0,0,0,2-.32,4.34,4.34,0,0,0,1.47-.9,4,4,0,0,0,.9-1.39,5,5,0,0,0,.3-1.78,4.91,4.91,0,0,0-.31-1.79,3.84,3.84,0,0,0-.92-1.4,4.17,4.17,0,0,0-1.47-.89,5.74,5.74,0,0,0-2-.31,5.88,5.88,0,0,0-2,.31,4.3,4.3,0,0,0-1.48.89,3.82,3.82,0,0,0-.91,1.4,4.91,4.91,0,0,0-.32,1.79,4.82,4.82,0,0,0,.32,1.78,3.86,3.86,0,0,0,.91,1.39,4.48,4.48,0,0,0,1.48.9A5.87,5.87,0,0,0,130.94,54.65Z"/><path d="M142.86,62.35V44.94h.87a.63.63,0,0,1,.43.12.58.58,0,0,1,.15.42l.14,3.68a8.35,8.35,0,0,1,2.24-3.32,5.11,5.11,0,0,1,3.45-1.2,6,6,0,0,1,1.45.17,5.65,5.65,0,0,1,1.26.48l-.23,1.15a.31.31,0,0,1-.35.28.79.79,0,0,1-.29-.07l-.49-.15a5.73,5.73,0,0,0-.7-.16,5.66,5.66,0,0,0-1-.07,4.48,4.48,0,0,0-3.24,1.22A8.81,8.81,0,0,0,144.52,51V62.35Z"/><path d="M167,62.35a.6.6,0,0,1-.65-.49l-.24-2.22a17.7,17.7,0,0,1-1.43,1.26,8,8,0,0,1-1.48.94,7,7,0,0,1-1.66.59,9.15,9.15,0,0,1-2,.2,5.94,5.94,0,0,1-1.73-.26,4.23,4.23,0,0,1-1.49-.81,3.88,3.88,0,0,1-1-1.39,4.82,4.82,0,0,1-.39-2,3.6,3.6,0,0,1,.62-2,5.24,5.24,0,0,1,2-1.65A13.43,13.43,0,0,1,161,53.32a30.44,30.44,0,0,1,5.07-.49V51a5.86,5.86,0,0,0-1-3.72A3.73,3.73,0,0,0,161.9,46a5.94,5.94,0,0,0-2.15.35,7.38,7.38,0,0,0-1.49.77,10.16,10.16,0,0,0-1,.77,1.1,1.1,0,0,1-.65.35.56.56,0,0,1-.52-.32l-.3-.5a10.25,10.25,0,0,1,2.87-2.07,8.08,8.08,0,0,1,3.41-.7,6.16,6.16,0,0,1,2.45.45,4.49,4.49,0,0,1,1.74,1.28,5.65,5.65,0,0,1,1.05,2,9.36,9.36,0,0,1,.34,2.63V62.35Zm-7-.93a7.67,7.67,0,0,0,1.86-.21,6.84,6.84,0,0,0,1.58-.62,8.19,8.19,0,0,0,1.36-.93c.42-.37.83-.76,1.24-1.18V54a30.47,30.47,0,0,0-4.28.38,12.17,12.17,0,0,0-3,.83,4.34,4.34,0,0,0-1.71,1.25,2.65,2.65,0,0,0-.56,1.65,3.71,3.71,0,0,0,.29,1.52,3.18,3.18,0,0,0,.77,1.05,3,3,0,0,0,1.1.6A4.42,4.42,0,0,0,160,61.42Zm5.84-24.11-3.77,4.43a.84.84,0,0,1-.29.23,1,1,0,0,1-.36.06h-1l2.75-4.16a1.25,1.25,0,0,1,.4-.44,1.3,1.3,0,0,1,.63-.12Z"/><path d="M173.55,62.35V46.76l-2.45-.16c-.34,0-.51-.17-.51-.44v-.68h3V44a8.52,8.52,0,0,1,.47-2.9,6,6,0,0,1,1.38-2.19,5.91,5.91,0,0,1,2.19-1.39,8.51,8.51,0,0,1,3-.48,7.11,7.11,0,0,1,1.2.1,4.55,4.55,0,0,1,1,.28l-.07.84q0,.18-.24.18a3.92,3.92,0,0,1-.57-.06,6.28,6.28,0,0,0-1-.06,6,6,0,0,0-4.26,1.41,5.67,5.67,0,0,0-1.51,4.33v1.43h10.2V62.35h-1.66V46.72h-8.51V62.35Z"/><path d="M203,47.27l-.16.15a.38.38,0,0,1-.22.06.88.88,0,0,1-.48-.24,7,7,0,0,0-.82-.52,7.59,7.59,0,0,0-1.27-.51,6.13,6.13,0,0,0-1.84-.24,6.24,6.24,0,0,0-2.67.54,5.15,5.15,0,0,0-2,1.53,7,7,0,0,0-1.22,2.41,11.25,11.25,0,0,0-.42,3.19,11.08,11.08,0,0,0,.43,3.25,6.91,6.91,0,0,0,1.22,2.39,5.16,5.16,0,0,0,1.9,1.48,6,6,0,0,0,2.49.51,6.41,6.41,0,0,0,2.11-.3,6.81,6.81,0,0,0,1.4-.65,5.44,5.44,0,0,0,.87-.65,1,1,0,0,1,.52-.29.41.41,0,0,1,.35.17l.45.56a4.72,4.72,0,0,1-1,1,6.62,6.62,0,0,1-1.38.79,9.31,9.31,0,0,1-1.67.52,9.69,9.69,0,0,1-1.89.18,7.48,7.48,0,0,1-3-.6,6.59,6.59,0,0,1-2.36-1.75,8.19,8.19,0,0,1-1.54-2.81,12.9,12.9,0,0,1,0-7.42,8.26,8.26,0,0,1,1.53-2.84,6.76,6.76,0,0,1,2.47-1.84,8,8,0,0,1,3.35-.66,7.93,7.93,0,0,1,3,.54,7.3,7.3,0,0,1,2.3,1.47Z"/><path d="M218.6,62.35a.6.6,0,0,1-.65-.49l-.25-2.22a16.06,16.06,0,0,1-1.42,1.26,8.37,8.37,0,0,1-1.48.94,7,7,0,0,1-1.66.59,9.22,9.22,0,0,1-2,.2,6,6,0,0,1-1.74-.26,4.18,4.18,0,0,1-1.48-.81,3.77,3.77,0,0,1-1-1.39,4.67,4.67,0,0,1-.4-2,3.61,3.61,0,0,1,.63-2,5.24,5.24,0,0,1,2-1.65,13.17,13.17,0,0,1,3.45-1.12,30.2,30.2,0,0,1,5.06-.49V51a5.8,5.8,0,0,0-1-3.72A3.7,3.7,0,0,0,213.5,46a5.88,5.88,0,0,0-2.14.35,7.48,7.48,0,0,0-1.5.77,9.89,9.89,0,0,0-1,.77,1.13,1.13,0,0,1-.65.35.58.58,0,0,1-.53-.32l-.29-.5a10.11,10.11,0,0,1,2.87-2.07,8.08,8.08,0,0,1,3.41-.7,6.19,6.19,0,0,1,2.45.45,4.49,4.49,0,0,1,1.74,1.28,5.48,5.48,0,0,1,1,2,9.35,9.35,0,0,1,.35,2.63V62.35Zm-7-.93a7.79,7.79,0,0,0,1.86-.21,6.84,6.84,0,0,0,1.58-.62,7.72,7.72,0,0,0,1.35-.93c.42-.37.84-.76,1.24-1.18V54a30.76,30.76,0,0,0-4.28.38,12.08,12.08,0,0,0-2.95.83,4.38,4.38,0,0,0-1.72,1.25,2.64,2.64,0,0,0-.55,1.65,3.71,3.71,0,0,0,.29,1.52,3.16,3.16,0,0,0,.76,1.05,3.1,3.1,0,0,0,1.1.6A4.44,4.44,0,0,0,211.6,61.42Z"/></g></g></svg>