<svg xmlns="http://www.w3.org/2000/svg" viewBox="0 0 219.26 68.06"><defs><style>.cls-1{fill:#ff5a60;}.cls-2{fill:#fff;}</style></defs><title>logo02</title><g id="Capa_2" data-name="Capa 2"><g id="Capa_2-2" data-name="Capa 2"><rect class="cls-1" width="57" height="61.32"/><path class="cls-2" d="M49.56,12.32c-5.23,0-8.18,1.82-8.18,10.9H38.89V28h2.49V41.61a3.33,3.33,0,0,1-3.63,3V49.1h2.5c1.81,0,5.67-4.32,5.67-7.27V28h2.5V23.22h-2.5V19.58s.68-2.72,2.5-2.72h1.14Z"/><path class="cls-2" d="M6.46,42.51h4.76v-12c0-3.18,7.27-3.4,7.27,0v12h4.77v-12c.22-3.63,7.49-3.63,7.49,0v12h4.76v-12S34.38,23,28.48,23s-6.81,2.72-7.5,2.72S19.4,23,14.86,23a9.16,9.16,0,0,0-7.95,4.77,3.62,3.62,0,0,0-.45,1.13Z"/><path d="M73.4,25.62,68.05,8.16h-.14c.19,3.56.29,5.92.29,7.11V25.62H64V3.37H70.4l5.27,17h.09l5.58-17h6.43V25.62h-4.4V15.09c0-.5,0-1.07,0-1.72s.08-2.38.21-5.17h-.14L77.72,25.62Z"/><path d="M100.7,25.92a8.78,8.78,0,0,1-6.42-2.27A8.59,8.59,0,0,1,92,17.23a9.47,9.47,0,0,1,2.14-6.61A7.65,7.65,0,0,1,100,8.29a7.49,7.49,0,0,1,5.62,2.05,7.77,7.77,0,0,1,2,5.68v2.25h-11a4.46,4.46,0,0,0,1.17,3.09,4.11,4.11,0,0,0,3.07,1.11,13,13,0,0,0,2.91-.32,15.71,15.71,0,0,0,2.86-1v3.59a10.81,10.81,0,0,1-2.6.9A16.29,16.29,0,0,1,100.7,25.92ZM100,11.59a3,3,0,0,0-2.31.93,4.33,4.33,0,0,0-1,2.66h6.51a3.92,3.92,0,0,0-.89-2.66A3.06,3.06,0,0,0,100,11.59Z"/><path d="M126.64,25.62H122V15.68a5,5,0,0,0-.62-2.76,2.18,2.18,0,0,0-1.94-.92,2.8,2.8,0,0,0-2.58,1.31,8.54,8.54,0,0,0-.81,4.3v8h-4.64v-17H115l.63,2.17h.26a4.66,4.66,0,0,1,2-1.83,6.49,6.49,0,0,1,3-.66q3.82,0,5.17,2.49h.41a4.64,4.64,0,0,1,2-1.84,6.69,6.69,0,0,1,3-.65,5.93,5.93,0,0,1,4.37,1.48q1.49,1.48,1.48,4.75v11.1h-4.65V15.68a5,5,0,0,0-.62-2.76A2.18,2.18,0,0,0,130,12a2.89,2.89,0,0,0-2.55,1.22,6.93,6.93,0,0,0-.84,3.86Z"/><path d="M157.46,17.08a9.15,9.15,0,0,1-2.19,6.5,7.94,7.94,0,0,1-6.1,2.34,8.6,8.6,0,0,1-4.32-1.07A7.07,7.07,0,0,1,142,21.77a10.35,10.35,0,0,1-1-4.69,9.09,9.09,0,0,1,2.18-6.48,8,8,0,0,1,6.11-2.31,8.54,8.54,0,0,1,4.32,1.06,7.11,7.11,0,0,1,2.88,3.06A10.26,10.26,0,0,1,157.46,17.08Zm-11.76,0a7.17,7.17,0,0,0,.83,3.82,3,3,0,0,0,2.7,1.29,2.92,2.92,0,0,0,2.67-1.28,7.2,7.2,0,0,0,.82-3.83,7.11,7.11,0,0,0-.82-3.79,3.51,3.51,0,0,0-5.38,0A7.13,7.13,0,0,0,145.7,17.08Z"/><path d="M170.79,8.29a7.68,7.68,0,0,1,1.57.13L172,12.78a5.85,5.85,0,0,0-4.83,1,4.12,4.12,0,0,0-1.24,3.2v8.66H161.3v-17h3.51l.69,2.86h.23a6.31,6.31,0,0,1,2.13-2.31A5.31,5.31,0,0,1,170.79,8.29Z"/><path d="M175.25,4.21c0-1.51.84-2.27,2.53-2.27s2.52.76,2.52,2.27a2.21,2.21,0,0,1-.63,1.68,2.65,2.65,0,0,1-1.89.6C176.09,6.49,175.25,5.73,175.25,4.21Zm4.84,21.41h-4.64v-17h4.64Z"/><path d="M195.76,25.62l-.9-2.32h-.12a6.76,6.76,0,0,1-2.41,2.05,7.82,7.82,0,0,1-3.23.57,5.24,5.24,0,0,1-3.86-1.4,5.37,5.37,0,0,1-1.41-4,4.48,4.48,0,0,1,1.9-4,10.91,10.91,0,0,1,5.71-1.42l2.95-.09v-.75a2.32,2.32,0,0,0-2.65-2.59A12.12,12.12,0,0,0,187,12.93l-1.54-3.14a13.9,13.9,0,0,1,6.52-1.53,8,8,0,0,1,5.24,1.49A5.49,5.49,0,0,1,199,14.28V25.62Zm-1.37-7.88-1.8.06a5.73,5.73,0,0,0-3,.73,2.27,2.27,0,0,0-1,2c0,1.31.75,2,2.25,2a3.55,3.55,0,0,0,2.58-.93,3.25,3.25,0,0,0,1-2.47Z"/><path d="M64.23,61.57V46l-2.45-.16c-.34,0-.51-.17-.51-.44V44.7h3V42.49a8,8,0,0,1,.39-2.61A5.16,5.16,0,0,1,65.7,38a4.34,4.34,0,0,1,1.69-1.13,6.12,6.12,0,0,1,2.18-.38,5.74,5.74,0,0,1,1.09.1,4.13,4.13,0,0,1,1,.27l0,.8c0,.17-.12.25-.33.25a5.07,5.07,0,0,1-.57,0,5.44,5.44,0,0,0-.88-.06,4.82,4.82,0,0,0-1.59.26,3.15,3.15,0,0,0-1.25.81,3.73,3.73,0,0,0-.81,1.46,7.43,7.43,0,0,0-.29,2.22V44.7h5.65v1.24H65.9V61.57Z"/><path d="M81.49,43.88a8.31,8.31,0,0,1,3.35.64,6.76,6.76,0,0,1,2.49,1.81,8,8,0,0,1,1.55,2.82,13.18,13.18,0,0,1,0,7.4,8.06,8.06,0,0,1-1.55,2.81,6.65,6.65,0,0,1-2.49,1.81,9.22,9.22,0,0,1-6.7,0,6.8,6.8,0,0,1-2.51-1.81,7.9,7.9,0,0,1-1.55-2.81,12.95,12.95,0,0,1,0-7.4,7.86,7.86,0,0,1,1.55-2.82,6.92,6.92,0,0,1,2.51-1.81A8.27,8.27,0,0,1,81.49,43.88Zm0,16.6A6.41,6.41,0,0,0,84.21,60a5.29,5.29,0,0,0,1.94-1.53A6.68,6.68,0,0,0,87.31,56a13,13,0,0,0,0-6.31,6.72,6.72,0,0,0-1.16-2.42,5.24,5.24,0,0,0-1.94-1.55,7.12,7.12,0,0,0-5.44,0,5.19,5.19,0,0,0-2,1.55,6.91,6.91,0,0,0-1.17,2.42,13,13,0,0,0,0,6.31,6.86,6.86,0,0,0,1.17,2.41,5.24,5.24,0,0,0,2,1.53A6.38,6.38,0,0,0,81.49,60.48Z"/><path d="M98.53,61.85a3.74,3.74,0,0,1-2.75-1,4.13,4.13,0,0,1-1-3V45.94H92.3a.45.45,0,0,1-.31-.1.35.35,0,0,1-.13-.3v-.65l3-.21.41-6.23a.6.6,0,0,1,.13-.28.41.41,0,0,1,.31-.12h.78V44.7h5.47v1.24H96.47V57.75A3.82,3.82,0,0,0,96.65,59a2.33,2.33,0,0,0,.51.85,2,2,0,0,0,.76.49,2.89,2.89,0,0,0,.94.15A3,3,0,0,0,100,60.3a5.28,5.28,0,0,0,.79-.4,6.35,6.35,0,0,0,.54-.4.57.57,0,0,1,.33-.19.36.36,0,0,1,.28.18l.46.73a4.84,4.84,0,0,1-1.69,1.18A5.22,5.22,0,0,1,98.53,61.85Z"/><path d="M112.9,43.88a8.31,8.31,0,0,1,3.35.64,6.68,6.68,0,0,1,2.49,1.81,7.86,7.86,0,0,1,1.55,2.82,12.95,12.95,0,0,1,0,7.4,7.9,7.9,0,0,1-1.55,2.81,6.57,6.57,0,0,1-2.49,1.81,9.22,9.22,0,0,1-6.7,0A6.8,6.8,0,0,1,107,59.36a7.9,7.9,0,0,1-1.55-2.81,12.95,12.95,0,0,1,0-7.4A7.86,7.86,0,0,1,107,46.33a6.92,6.92,0,0,1,2.51-1.81A8.27,8.27,0,0,1,112.9,43.88Zm0,16.6a6.41,6.41,0,0,0,2.72-.53,5.21,5.21,0,0,0,1.94-1.53A6.86,6.86,0,0,0,118.73,56a13.29,13.29,0,0,0,0-6.31,6.91,6.91,0,0,0-1.17-2.42,5.16,5.16,0,0,0-1.94-1.55,7.12,7.12,0,0,0-5.44,0,5.19,5.19,0,0,0-2,1.55,7.08,7.08,0,0,0-1.17,2.42,13,13,0,0,0,0,6.31,7,7,0,0,0,1.17,2.41,5.24,5.24,0,0,0,2,1.53A6.38,6.38,0,0,0,112.9,60.48Z"/><path d="M130.94,43.86a7.48,7.48,0,0,1,2.11.28,6.29,6.29,0,0,1,1.74.79h4.46v.57c0,.3-.16.45-.49.48l-2.64.19a4.8,4.8,0,0,1,.75,1.5,5.93,5.93,0,0,1-.19,4.06,5.15,5.15,0,0,1-1.27,1.75,5.66,5.66,0,0,1-1.95,1.12,7.48,7.48,0,0,1-2.52.41,7.67,7.67,0,0,1-2.73-.46,3.54,3.54,0,0,0-1.15,1,1.91,1.91,0,0,0-.42,1.12,1.35,1.35,0,0,0,.52,1.15,3.36,3.36,0,0,0,1.39.59,13.41,13.41,0,0,0,2,.24l2.26.11c.76,0,1.51.11,2.25.22a7.07,7.07,0,0,1,2,.55,3.46,3.46,0,0,1,1.39,1.1,3.1,3.1,0,0,1,.53,1.88,4.34,4.34,0,0,1-.54,2.09,5.66,5.66,0,0,1-1.57,1.76,8.11,8.11,0,0,1-2.48,1.24,10.63,10.63,0,0,1-3.25.46,12.34,12.34,0,0,1-3.22-.37,7.77,7.77,0,0,1-2.32-1,4.59,4.59,0,0,1-1.41-1.48,3.62,3.62,0,0,1-.47-1.78,3.37,3.37,0,0,1,.91-2.38,5.76,5.76,0,0,1,2.5-1.54,3.33,3.33,0,0,1-1.39-.86,2.18,2.18,0,0,1-.52-1.56,2.47,2.47,0,0,1,.14-.77,3.55,3.55,0,0,1,.42-.79,4,4,0,0,1,.68-.75,5,5,0,0,1,.92-.63,5.16,5.16,0,0,1-1.94-1.91,5.43,5.43,0,0,1-.69-2.78,5.59,5.59,0,0,1,.45-2.28,4.91,4.91,0,0,1,1.26-1.76,5.7,5.7,0,0,1,2-1.14A7.66,7.66,0,0,1,130.94,43.86Zm6.46,18.88a1.93,1.93,0,0,0-.43-1.32,2.93,2.93,0,0,0-1.15-.78,6.89,6.89,0,0,0-1.65-.39c-.62-.08-1.28-.13-2-.17l-2.06-.1a17.62,17.62,0,0,1-1.92-.21,7.5,7.5,0,0,0-1.24.6,4.7,4.7,0,0,0-1,.77,3.28,3.28,0,0,0-.63,1,2.88,2.88,0,0,0,.17,2.55,3.48,3.48,0,0,0,1.15,1.14,6.57,6.57,0,0,0,1.87.76,10.17,10.17,0,0,0,2.54.28,9.72,9.72,0,0,0,2.47-.3,7,7,0,0,0,2-.84,4.32,4.32,0,0,0,1.33-1.29A3,3,0,0,0,137.4,62.74Zm-6.46-8.87a5.91,5.91,0,0,0,2-.32,4.21,4.21,0,0,0,1.47-.91,3.84,3.84,0,0,0,.9-1.38,5,5,0,0,0,.3-1.78,5,5,0,0,0-.31-1.8,3.88,3.88,0,0,0-.92-1.39,4.17,4.17,0,0,0-1.47-.89,5.73,5.73,0,0,0-2-.32,5.87,5.87,0,0,0-2,.32,4.3,4.3,0,0,0-1.48.89,3.86,3.86,0,0,0-.91,1.39,5,5,0,0,0-.32,1.8,4.82,4.82,0,0,0,.32,1.78,3.74,3.74,0,0,0,.91,1.38,4.34,4.34,0,0,0,1.48.91A5.87,5.87,0,0,0,130.94,53.87Z"/><path d="M142.86,61.57V44.16h.87a.63.63,0,0,1,.43.12.58.58,0,0,1,.15.42l.14,3.67a8.31,8.31,0,0,1,2.24-3.31,5.11,5.11,0,0,1,3.45-1.2,5.55,5.55,0,0,1,1.45.17,5.65,5.65,0,0,1,1.26.48l-.23,1.15a.31.31,0,0,1-.35.28.79.79,0,0,1-.29-.07l-.49-.16a5.92,5.92,0,0,0-.7-.15,5.66,5.66,0,0,0-1-.07,4.48,4.48,0,0,0-3.24,1.22,8.81,8.81,0,0,0-2.06,3.54V61.57Z"/><path d="M167,61.57a.6.6,0,0,1-.65-.49l-.24-2.22c-.48.46-1,.88-1.43,1.26a8.59,8.59,0,0,1-1.48.94,7.42,7.42,0,0,1-1.66.59,9.15,9.15,0,0,1-2,.2,5.94,5.94,0,0,1-1.73-.26,4.39,4.39,0,0,1-1.49-.81,3.88,3.88,0,0,1-1-1.39,4.85,4.85,0,0,1-.39-2,3.63,3.63,0,0,1,.62-2.05,5.22,5.22,0,0,1,2-1.64A13.05,13.05,0,0,1,161,52.54a30.44,30.44,0,0,1,5.07-.49V50.23a5.86,5.86,0,0,0-1-3.72,3.73,3.73,0,0,0-3.09-1.3,5.73,5.73,0,0,0-2.15.35,7.38,7.38,0,0,0-1.49.77,8.82,8.82,0,0,0-1,.77,1.1,1.1,0,0,1-.65.35.56.56,0,0,1-.52-.32l-.3-.51a10.21,10.21,0,0,1,2.87-2.06,7.93,7.93,0,0,1,3.41-.7,6.16,6.16,0,0,1,2.45.45,4.47,4.47,0,0,1,1.74,1.27,5.78,5.78,0,0,1,1.05,2,9.31,9.31,0,0,1,.34,2.63V61.57Zm-7-.93a7.19,7.19,0,0,0,1.86-.22,6.82,6.82,0,0,0,1.58-.61,7.68,7.68,0,0,0,1.36-.94c.42-.36.83-.75,1.24-1.17V53.17a30.47,30.47,0,0,0-4.28.38,12.17,12.17,0,0,0-3,.83,4.25,4.25,0,0,0-1.71,1.25,2.63,2.63,0,0,0-.56,1.65,3.75,3.75,0,0,0,.29,1.52,3.18,3.18,0,0,0,.77,1.05,3,3,0,0,0,1.1.6A4.42,4.42,0,0,0,160,60.64Zm5.84-24.11L162.06,41a.77.77,0,0,1-.29.24,1,1,0,0,1-.36.06h-1l2.75-4.16a1.25,1.25,0,0,1,.4-.44,1.3,1.3,0,0,1,.63-.12Z"/><path d="M173.55,61.57V46l-2.45-.16c-.34,0-.51-.17-.51-.44V44.7h3V43.21a8.48,8.48,0,0,1,.47-2.9,6.14,6.14,0,0,1,1.38-2.2,6,6,0,0,1,2.19-1.38,8.51,8.51,0,0,1,3-.48,7.11,7.11,0,0,1,1.2.1,4.09,4.09,0,0,1,1,.28l-.07.84q0,.18-.24.18a3.92,3.92,0,0,1-.57-.06,5.1,5.1,0,0,0-1-.07,6,6,0,0,0-4.26,1.42,5.66,5.66,0,0,0-1.51,4.32V44.7h10.2V61.57h-1.66V45.94h-8.51V61.57Z"/><path d="M203,46.48l-.16.15a.38.38,0,0,1-.22.06.85.85,0,0,1-.48-.23,7,7,0,0,0-.82-.52,6.82,6.82,0,0,0-1.27-.51,6.13,6.13,0,0,0-1.84-.24,6.39,6.39,0,0,0-2.67.53,5.35,5.35,0,0,0-2,1.53,7.06,7.06,0,0,0-1.22,2.42,12.41,12.41,0,0,0,0,6.44,7,7,0,0,0,1.22,2.39,5.16,5.16,0,0,0,1.9,1.48,6,6,0,0,0,2.49.5,6.71,6.71,0,0,0,2.11-.29,7.38,7.38,0,0,0,1.4-.65,5.44,5.44,0,0,0,.87-.65.92.92,0,0,1,.52-.3.4.4,0,0,1,.35.18l.45.56a4.72,4.72,0,0,1-1,1,7.09,7.09,0,0,1-1.38.79,8.56,8.56,0,0,1-1.67.51,9,9,0,0,1-1.89.19,7.32,7.32,0,0,1-3-.61,6.37,6.37,0,0,1-2.36-1.75,8,8,0,0,1-1.54-2.81,12.9,12.9,0,0,1,0-7.42,8.21,8.21,0,0,1,1.53-2.83,6.9,6.9,0,0,1,2.47-1.85,8.21,8.21,0,0,1,3.35-.65,7.93,7.93,0,0,1,3,.54,7.3,7.3,0,0,1,2.3,1.47Z"/><path d="M218.6,61.57a.6.6,0,0,1-.65-.49l-.25-2.22c-.47.46-.95.88-1.42,1.26a9,9,0,0,1-1.48.94,7.42,7.42,0,0,1-1.66.59,9.22,9.22,0,0,1-2,.2,6,6,0,0,1-1.74-.26,4.35,4.35,0,0,1-1.48-.81,3.77,3.77,0,0,1-1-1.39,4.7,4.7,0,0,1-.4-2,3.64,3.64,0,0,1,.63-2.05,5.22,5.22,0,0,1,2-1.64,12.81,12.81,0,0,1,3.45-1.12,30.2,30.2,0,0,1,5.06-.49V50.23a5.8,5.8,0,0,0-1-3.72,3.7,3.7,0,0,0-3.09-1.3,5.68,5.68,0,0,0-2.14.35,7.48,7.48,0,0,0-1.5.77,8.61,8.61,0,0,0-1,.77,1.13,1.13,0,0,1-.65.35.58.58,0,0,1-.53-.32l-.29-.51a10.07,10.07,0,0,1,2.87-2.06,7.93,7.93,0,0,1,3.41-.7,6.19,6.19,0,0,1,2.45.45,4.47,4.47,0,0,1,1.74,1.27,5.61,5.61,0,0,1,1,2,9.3,9.3,0,0,1,.35,2.63V61.57Zm-7-.93a7.3,7.3,0,0,0,1.86-.22,6.82,6.82,0,0,0,1.58-.61,7.26,7.26,0,0,0,1.35-.94,16.9,16.9,0,0,0,1.24-1.17V53.17a30.76,30.76,0,0,0-4.28.38,12.08,12.08,0,0,0-2.95.83,4.29,4.29,0,0,0-1.72,1.25,2.62,2.62,0,0,0-.55,1.65,3.75,3.75,0,0,0,.29,1.52,3.16,3.16,0,0,0,.76,1.05,3.1,3.1,0,0,0,1.1.6A4.44,4.44,0,0,0,211.6,60.64Z"/></g></g></svg>