<?xml version="1.0" encoding="UTF-8"?>
<svg xmlns="http://www.w3.org/2000/svg" id="Outline" viewBox="0 0 512 512" width="512" height="512"><path d="M216,256a40,40,0,1,0-40-40A40.045,40.045,0,0,0,216,256Zm0-64a24,24,0,1,1-24,24A24.028,24.028,0,0,1,216,192Z"/><path d="M488,368H464V278.624a24,24,0,0,0,0-45.248V78.624A24,24,0,1,0,433.376,48H278.624a24,24,0,0,0-45.248,0H144V24a8,8,0,0,0-8-8H104a8,8,0,0,0-8,8V48H78.624A24,24,0,1,0,48,78.624V96H24a8,8,0,0,0-8,8v32a8,8,0,0,0,8,8H48v89.376a24,24,0,0,0,0,45.248V433.376A24,24,0,1,0,78.624,464H233.376a24,24,0,0,0,45.248,0H368v24a8,8,0,0,0,8,8h32a8,8,0,0,0,8-8V464h17.376A24,24,0,1,0,464,433.376V416h24a8,8,0,0,0,8-8V376A8,8,0,0,0,488,368ZM456,264a8,8,0,1,1,8-8A8.009,8.009,0,0,1,456,264Zm0-216a8,8,0,1,1-8,8A8.009,8.009,0,0,1,456,48ZM256,48a8,8,0,1,1-8,8A8.009,8.009,0,0,1,256,48ZM233.376,64a24,24,0,0,0,45.248,0H433.376A24.119,24.119,0,0,0,448,78.624V233.376a24,24,0,0,0,0,45.248V368H416V104a8,8,0,0,0-8-8H144V64ZM368,342.112l-56.845-113.69a8,8,0,0,0-14.1-.391l-58.8,102.906-40.593-40.594a8,8,0,0,0-12.211,1.069L144,350.621V144H368ZM193.085,308.4l41.258,41.258a8,8,0,0,0,12.6-1.688l56.583-99.021L363.056,368H151.365ZM376,128H144V112H400V368H384V136A8,8,0,0,0,376,128ZM56,48a8,8,0,1,1-8,8A8.009,8.009,0,0,1,56,48Zm8,30.624A24.114,24.114,0,0,0,78.624,64H96V96H64ZM32,112H96v16H32ZM56,248a8,8,0,1,1-8,8A8.009,8.009,0,0,1,56,248Zm0,216a8,8,0,1,1,8-8A8.009,8.009,0,0,1,56,464Zm200,0a8,8,0,1,1,8-8A8.009,8.009,0,0,1,256,464Zm22.624-16a24,24,0,0,0-45.248,0H78.624A24.114,24.114,0,0,0,64,433.376V278.624a24,24,0,0,0,0-45.248V144H96V408a8,8,0,0,0,8,8H368v32ZM384,480V416h16v64Zm72-16a8,8,0,1,1,8-8A8.009,8.009,0,0,1,456,464Zm-8-30.624A24.119,24.119,0,0,0,433.376,448H416V416h32ZM480,400H112V32h16V376a8,8,0,0,0,8,8H480Z"/></svg>
