<?xml version="1.0" encoding="UTF-8"?>
<svg xmlns="http://www.w3.org/2000/svg" id="Outline" viewBox="0 0 512 512" width="512" height="512"><path d="M88,496H456a8,8,0,0,0,8-8V96a8,8,0,0,0-2.343-5.657l-72-72A8,8,0,0,0,384,16H88a8,8,0,0,0-8,8V72H56a8,8,0,0,0-8,8V192a8,8,0,0,0,8,8H80V488A8,8,0,0,0,88,496ZM392,43.313,436.687,88H392ZM96,32H376V96a8,8,0,0,0,8,8h64V480H96V200h16V440a8,8,0,0,0,8,8H424a8,8,0,0,0,8-8V136a8,8,0,0,0-8-8H336V80a8,8,0,0,0-8-8H96ZM336,192V144h80V401.535L351.337,252.81a8,8,0,0,0-14.575-.216L277.347,378.85l-71.995-64.8a8,8,0,0,0-12.008,1.508L128,413.578V200H328A8,8,0,0,0,336,192Zm75.8,240H134.948l66.576-99.865,73.124,65.811a8,8,0,0,0,12.59-2.54l56.474-120ZM64,88H320v96H64Z"/><path d="M112,104H96a8,8,0,0,0,0,16v28.687l-2.343-2.344a8,8,0,0,0-11.314,11.314l8,8a8,8,0,0,0,11.314,0l8-8A8,8,0,0,0,112,152V120a8,8,0,0,0,0-16Z"/><path d="M175.155,108.422A8,8,0,0,0,168,104H144a8,8,0,0,0-8,8v48a8,8,0,0,0,16,0v-8h16a8,8,0,0,0,7.155-4.422l8-16a8,8,0,0,0,0-7.156ZM163.056,136H152V120h11.056l4,8Z"/><path d="M232,120a8,8,0,0,0,0-16H208a8,8,0,0,0-8,8v48a8,8,0,0,0,8,8h24a8,8,0,0,0,0-16H216v-8h8a8,8,0,0,0,0-16h-8v-8Z"/><path d="M296,120a8,8,0,0,0,0-16H264a8,8,0,0,0-8,8v48a8,8,0,0,0,8,8h32a8,8,0,0,0,8-8V144a8,8,0,0,0-8-8h-8a8,8,0,0,0,0,16H272V120Z"/><path d="M248,232a40,40,0,1,0,40,40A40.045,40.045,0,0,0,248,232Zm0,64a24,24,0,1,1,24-24A24.028,24.028,0,0,1,248,296Z"/></svg>
