<?xml version="1.0" encoding="utf-8"?>
<!-- Generator: Adobe Illustrator 21.0.2, SVG Export Plug-In . SVG Version: 6.00 Build 0)  -->
<svg version="1.1" id="Capa_1" xmlns="http://www.w3.org/2000/svg" xmlns:xlink="http://www.w3.org/1999/xlink" x="0px" y="0px"
	 viewBox="0 0 368.8 36.8" style="enable-background:new 0 0 368.8 36.8;" xml:space="preserve">
<style type="text/css">
	.st0{fill:#FF5A60;}
	.st1{fill:#FFFFFF;}
</style>
<title>logo01</title>
<g>
	<rect x="7.8" y="0.3" class="st0" width="33.9" height="36.5"/>
	<g>
		<path class="st1" d="M37.2,7.6c-3.1,0-4.9,1.1-4.9,6.5h-1.5v2.8h1.5V25c-0.1,1.1-1.1,1.9-2.2,1.8v2.7h1.5c1.1,0,3.4-2.6,3.4-4.3
			v-8.3h1.5v-2.8h-1.5v-2.2c0,0,0.4-1.6,1.5-1.6h0.7L37.2,7.6z"/>
		<path class="st1" d="M11.6,25.6h2.8v-7.1c0-1.9,4.3-2,4.3,0v7.1h2.8v-7.1c0.1-2.2,4.5-2.2,4.5,0v7.1h2.8v-7.1c0,0-0.7-4.5-4.2-4.5
			s-4.1,1.6-4.5,1.6c-0.4,0-0.9-1.6-3.6-1.6c-2,0-3.8,1.1-4.7,2.8c-0.1,0.2-0.2,0.4-0.3,0.7L11.6,25.6z"/>
	</g>
</g>
<g>
	<path d="M57.4,28.7L51.2,8.5H51c0.2,4.1,0.3,6.8,0.3,8.2v12h-4.8V3h7.4L60,22.6h0.1L66.5,3h7.4v25.7h-5V16.5c0-0.6,0-1.2,0-2
		s0.1-2.7,0.2-6h-0.2l-6.6,20.2H57.4z"/>
	<path d="M88.9,29c-2.7,0.2-5.4-0.8-7.4-2.6c-1.8-1.7-2.7-4.2-2.7-7.4c0-3.3,0.8-5.8,2.5-7.6c1.8-1.9,4.3-2.8,6.8-2.7
		c2.4-0.1,4.7,0.7,6.5,2.4c1.6,1.8,2.5,4.2,2.3,6.6v2.6H84.2c0,1.3,0.5,2.6,1.4,3.6c1,0.9,2.2,1.4,3.6,1.3c1.1,0,2.3-0.1,3.3-0.4
		c1.1-0.3,2.3-0.7,3.3-1.2v4.1c-1,0.5-2,0.8-3,1C91.5,28.9,90.2,29,88.9,29z M88.1,12.5c-1,0-2,0.4-2.6,1.1
		c-0.7,0.9-1.1,1.9-1.1,3.1h7.5c0.1-1.1-0.3-2.2-1-3.1C90.2,12.8,89.2,12.4,88.1,12.5z"/>
	<path d="M118.9,28.7h-5.4V17.2c0.1-1.1-0.2-2.2-0.7-3.2c-0.5-0.7-1.4-1.1-2.2-1.1c-1.2-0.1-2.4,0.5-3,1.5c-0.7,1.6-1.1,3.3-0.9,5
		v9.2h-5.4V9h4.1l0.7,2.5h0.3c0.5-0.9,1.3-1.7,2.3-2.1c1.1-0.5,2.2-0.8,3.4-0.8c2.9,0,4.9,1,6,2.9h0.5c0.5-0.9,1.4-1.7,2.3-2.1
		c1.1-0.5,2.3-0.8,3.5-0.8c1.8-0.1,3.6,0.5,5,1.7c1.1,1.2,1.7,3,1.7,5.5v12.8h-5.4V17.2c0.1-1.1-0.2-2.2-0.7-3.2
		c-0.5-0.7-1.4-1.1-2.2-1.1c-1.1-0.1-2.2,0.5-2.9,1.4c-0.8,1.4-1.1,2.9-1,4.5L118.9,28.7z"/>
	<path d="M154.5,18.8c0.2,2.7-0.8,5.4-2.6,7.5c-1.8,1.9-4.4,2.8-7,2.7c-1.7,0-3.5-0.4-5-1.2c-1.4-0.8-2.6-2.1-3.3-3.6
		c-0.8-1.7-1.2-3.5-1.2-5.4c0-3.2,0.8-5.7,2.5-7.5c1.9-1.9,4.4-2.8,7.1-2.7c1.7,0,3.5,0.4,5,1.2c1.4,0.8,2.6,2,3.3,3.5
		C154.2,15.1,154.6,16.9,154.5,18.8z M140.9,18.8c-0.1,1.5,0.2,3.1,0.9,4.4c0.7,1,1.9,1.6,3.1,1.5c1.2,0.1,2.4-0.5,3.1-1.5
		c0.7-1.4,1-2.9,0.9-4.4c0.1-1.5-0.2-3-0.9-4.4c-1.4-1.7-3.9-2-5.6-0.6c-0.2,0.2-0.4,0.4-0.6,0.6C141.1,15.8,140.8,17.3,140.9,18.8
		L140.9,18.8z"/>
	<path d="M169.9,8.6c0.6,0,1.2,0,1.8,0.2l-0.4,5c-0.5-0.1-1-0.2-1.6-0.2c-1.5-0.1-2.9,0.4-4,1.3c-1,1-1.5,2.3-1.4,3.7v10h-5.4V9h4.1
		l0.8,3.3h0.3c0.6-1.1,1.4-2,2.5-2.7C167.5,9,168.7,8.6,169.9,8.6z"/>
	<path d="M175,3.9c0-1.8,1-2.6,2.9-2.6s2.9,0.9,2.9,2.6c0,0.7-0.2,1.4-0.7,1.9c-0.6,0.5-1.4,0.8-2.2,0.7C176,6.6,175,5.7,175,3.9z
		 M180.6,28.7h-5.4V9h5.4V28.7z"/>
	<path d="M198.7,28.7l-1-2.7h-0.1c-0.7,1-1.7,1.8-2.8,2.3c-1.2,0.5-2.5,0.7-3.7,0.7c-1.6,0.1-3.3-0.5-4.5-1.6
		c-1.1-1.3-1.7-2.9-1.6-4.6c-0.1-1.8,0.7-3.6,2.2-4.6c1.5-1,3.7-1.5,6.6-1.6l3.4-0.1v-0.9c0-2-1-3-3.1-3c-1.9,0.1-3.8,0.6-5.5,1.4
		l-1.8-3.6c2.3-1.2,4.9-1.8,7.5-1.8c2.2-0.1,4.3,0.5,6.1,1.8c1.5,1.3,2.3,3.3,2.1,5.3v13.1H198.7z M197.1,19.6l-2.1,0.1
		c-1.2,0-2.4,0.2-3.5,0.8c-0.7,0.5-1.2,1.4-1.1,2.4c0,1.5,0.9,2.3,2.6,2.3c1.1,0.1,2.2-0.3,3-1.1c0.8-0.7,1.2-1.8,1.1-2.9
		L197.1,19.6z"/>
</g>
<g>
	<path d="M209.1,29V13.5l-2.4-0.2c-0.3,0-0.5-0.2-0.5-0.4v-0.7h3V10c0-0.9,0.1-1.8,0.4-2.6c0.2-0.7,0.6-1.3,1.1-1.9
		c0.5-0.5,1-0.9,1.7-1.1c0.7-0.3,1.4-0.4,2.2-0.4c0.4,0,0.7,0,1.1,0.1c0.3,0,0.7,0.1,1,0.3v0.8c0,0.2-0.1,0.2-0.3,0.2
		c-0.2,0-0.4,0-0.6,0c-0.3,0-0.6,0-0.9,0c-0.5,0-1.1,0.1-1.6,0.2c-0.5,0.2-0.9,0.4-1.2,0.8c-0.4,0.4-0.7,0.9-0.8,1.5
		c-0.2,0.7-0.3,1.5-0.3,2.2v2.2h5.7v1.2h-5.7V29H209.1z"/>
	<path d="M226.4,11.4c1.1,0,2.3,0.2,3.3,0.6c1,0.4,1.8,1,2.5,1.8c0.7,0.8,1.2,1.8,1.6,2.8c0.7,2.4,0.7,5,0,7.4c-0.3,1-0.8,2-1.6,2.8
		c-0.7,0.8-1.5,1.4-2.5,1.8c-2.2,0.8-4.5,0.8-6.7,0c-1-0.4-1.8-1-2.5-1.8c-0.7-0.8-1.2-1.8-1.6-2.8c-0.7-2.4-0.7-5,0-7.4
		c0.3-1,0.8-2,1.6-2.8c0.7-0.8,1.5-1.4,2.5-1.8C224.1,11.6,225.2,11.3,226.4,11.4z M226.4,28c0.9,0,1.9-0.2,2.7-0.5
		c0.8-0.3,1.4-0.9,1.9-1.5c0.5-0.7,0.9-1.5,1.2-2.4c0.5-2.1,0.5-4.2,0-6.3c-0.2-0.9-0.6-1.7-1.2-2.4c-0.5-0.7-1.2-1.2-1.9-1.5
		c-1.7-0.7-3.7-0.7-5.4,0c-0.8,0.3-1.5,0.9-2,1.5c-0.5,0.7-0.9,1.6-1.2,2.4c-0.5,2.1-0.5,4.2,0,6.3c0.2,0.9,0.6,1.7,1.2,2.4
		c0.5,0.7,1.2,1.2,2,1.5C224.5,27.8,225.4,28,226.4,28z"/>
	<path d="M243.4,29.3c-1,0.1-2-0.3-2.8-1c-0.7-0.8-1.1-1.9-1-3V13.4h-2.5c-0.1,0-0.2,0-0.3-0.1c-0.1-0.1-0.1-0.2-0.1-0.3v-0.7l3-0.2
		l0.4-6.2c0-0.1,0.1-0.2,0.1-0.3c0.1-0.1,0.2-0.1,0.3-0.1h0.8v6.7h5.5v1.2h-5.5v11.8c0,0.4,0.1,0.8,0.2,1.2c0.1,0.3,0.3,0.6,0.5,0.8
		c0.2,0.2,0.5,0.4,0.8,0.5c0.3,0.1,0.6,0.2,0.9,0.2c0.4,0,0.7-0.1,1.1-0.2c0.3-0.1,0.5-0.2,0.8-0.4c0.2-0.1,0.4-0.3,0.5-0.4
		c0.1-0.1,0.2-0.2,0.3-0.2c0.1,0,0.2,0.1,0.3,0.2l0.5,0.7c-0.5,0.5-1,0.9-1.7,1.2C244.9,29.2,244.1,29.3,243.4,29.3z"/>
	<path d="M257.8,11.4c1.1,0,2.3,0.2,3.4,0.6c1,0.4,1.8,1,2.5,1.8c0.7,0.8,1.2,1.8,1.5,2.8c0.7,2.4,0.7,5,0,7.4c-0.3,1-0.8,2-1.5,2.8
		c-0.7,0.8-1.5,1.4-2.5,1.8c-2.2,0.8-4.5,0.8-6.7,0c-1-0.4-1.8-1-2.5-1.8c-0.7-0.8-1.2-1.8-1.6-2.8c-0.7-2.4-0.7-5,0-7.4
		c0.3-1,0.8-2,1.5-2.8c0.7-0.8,1.5-1.4,2.5-1.8C255.5,11.5,256.6,11.3,257.8,11.4z M257.8,28c0.9,0,1.9-0.2,2.7-0.5
		c0.8-0.3,1.4-0.9,1.9-1.5c0.5-0.7,0.9-1.5,1.2-2.4c0.5-2.1,0.5-4.2,0-6.3c-0.2-0.9-0.6-1.7-1.2-2.4c-0.5-0.7-1.2-1.2-1.9-1.5
		c-1.7-0.7-3.7-0.7-5.4,0c-0.8,0.3-1.5,0.9-2,1.5c-0.5,0.7-0.9,1.6-1.2,2.4c-0.5,2.1-0.5,4.2,0,6.3c0.2,0.9,0.6,1.7,1.2,2.4
		c0.5,0.7,1.2,1.2,2,1.5C255.9,27.8,256.8,28,257.8,28z"/>
	<path d="M275.8,11.3c0.7,0,1.4,0.1,2.1,0.3c0.6,0.2,1.2,0.4,1.7,0.8h4.5V13c0,0.3-0.2,0.5-0.5,0.5l-2.6,0.2c0.3,0.5,0.6,1,0.8,1.5
		c0.4,1.3,0.3,2.8-0.2,4.1c-0.3,0.7-0.7,1.3-1.3,1.8c-0.6,0.5-1.2,0.9-2,1.1c-0.8,0.3-1.7,0.4-2.5,0.4c-0.9,0-1.9-0.1-2.7-0.5
		c-0.4,0.2-0.8,0.6-1.1,1c-0.3,0.3-0.4,0.7-0.4,1.1c0,0.4,0.2,0.9,0.5,1.2c0.4,0.3,0.9,0.5,1.4,0.6c0.7,0.1,1.3,0.2,2,0.2l2.3,0.1
		c0.8,0,1.5,0.1,2.2,0.2c0.7,0.1,1.4,0.3,2,0.5c0.6,0.2,1,0.6,1.4,1.1c0.4,0.6,0.6,1.2,0.5,1.9c0,0.7-0.2,1.4-0.5,2.1
		c-0.4,0.7-0.9,1.3-1.6,1.8c-0.8,0.5-1.6,1-2.5,1.2c-1.1,0.3-2.1,0.5-3.2,0.5c-1.1,0-2.2-0.1-3.2-0.4c-0.8-0.2-1.6-0.5-2.3-1
		c-0.6-0.4-1.1-0.9-1.4-1.5c-0.3-0.5-0.5-1.2-0.5-1.8c0-0.9,0.3-1.7,0.9-2.4c0.7-0.7,1.5-1.3,2.5-1.5c-0.5-0.2-1-0.5-1.4-0.9
		c-0.4-0.4-0.6-1-0.5-1.6c0-0.3,0.1-0.5,0.1-0.8c0.1-0.3,0.2-0.5,0.4-0.8c0.2-0.3,0.4-0.5,0.7-0.8c0.3-0.2,0.6-0.5,0.9-0.6
		c-0.8-0.5-1.5-1.1-1.9-1.9c-0.5-0.9-0.7-1.8-0.7-2.8c0-0.8,0.1-1.6,0.4-2.3c0.3-0.7,0.7-1.3,1.3-1.8c0.6-0.5,1.3-0.9,2-1.1
		C274.1,11.5,275,11.3,275.8,11.3z M282.3,30.2c0-0.5-0.1-0.9-0.4-1.3c-0.3-0.3-0.7-0.6-1.1-0.8c-0.5-0.2-1.1-0.3-1.6-0.4
		c-0.6-0.1-1.3-0.1-2-0.2l-2.1-0.1c-0.6,0-1.3-0.1-1.9-0.2c-0.4,0.2-0.8,0.4-1.2,0.6c-0.4,0.2-0.7,0.5-1,0.8c-0.3,0.3-0.5,0.6-0.6,1
		c-0.2,0.4-0.2,0.7-0.2,1.1c0,0.5,0.1,1,0.4,1.4c0.3,0.5,0.7,0.9,1.1,1.1c0.6,0.3,1.2,0.6,1.9,0.8c0.8,0.2,1.7,0.3,2.5,0.3
		c0.8,0,1.7-0.1,2.5-0.3c0.7-0.2,1.4-0.4,2-0.8c0.5-0.3,1-0.8,1.3-1.3C282.1,31.4,282.3,30.8,282.3,30.2L282.3,30.2z M275.8,21.3
		c0.7,0,1.4-0.1,2-0.3c0.5-0.2,1-0.5,1.5-0.9c0.4-0.4,0.7-0.9,0.9-1.4c0.2-0.6,0.3-1.2,0.3-1.8c0-0.6-0.1-1.2-0.3-1.8
		c-0.2-0.5-0.5-1-0.9-1.4c-0.4-0.4-0.9-0.7-1.5-0.9c-0.6-0.2-1.3-0.3-2-0.3c-0.7,0-1.4,0.1-2,0.3c-0.5,0.2-1.1,0.5-1.5,0.9
		c-0.4,0.4-0.7,0.9-0.9,1.4c-0.2,0.6-0.3,1.2-0.3,1.8c0,0.6,0.1,1.2,0.3,1.8c0.2,0.5,0.5,1,0.9,1.4c0.4,0.4,0.9,0.7,1.5,0.9
		C274.4,21.3,275.1,21.4,275.8,21.3z"/>
	<path d="M287.7,29V11.6h0.9c0.2,0,0.3,0,0.4,0.1c0.1,0.1,0.2,0.3,0.1,0.4l0.1,3.7c0.5-1.3,1.2-2.4,2.2-3.3c1-0.8,2.2-1.2,3.5-1.2
		c0.5,0,1,0.1,1.4,0.2c0.4,0.1,0.9,0.3,1.3,0.5l-0.2,1.2c0,0.2-0.2,0.3-0.3,0.3c0,0,0,0,0,0c-0.1,0-0.2,0-0.3-0.1l-0.5-0.2
		c-0.2-0.1-0.5-0.1-0.7-0.2c-0.3-0.1-0.7-0.1-1-0.1c-1.2,0-2.4,0.4-3.2,1.2c-0.9,1-1.6,2.2-2,3.5V29H287.7z"/>
	<path d="M311.9,29c-0.3,0-0.6-0.2-0.6-0.5l-0.2-2.2c-0.5,0.4-0.9,0.9-1.4,1.3c-0.5,0.4-1,0.7-1.5,0.9c-0.5,0.3-1.1,0.5-1.7,0.6
		c-0.7,0.1-1.3,0.2-2,0.2c-0.6,0-1.2-0.1-1.7-0.3c-0.5-0.2-1.1-0.4-1.5-0.8c-0.4-0.4-0.8-0.9-1-1.4c-0.3-0.6-0.4-1.3-0.4-2
		c0-0.7,0.2-1.4,0.6-2c0.5-0.7,1.2-1.3,2-1.7c1.1-0.6,2.3-1,3.5-1.2c1.7-0.3,3.4-0.5,5.1-0.5v-1.8c0.1-1.3-0.3-2.6-1-3.7
		c-0.8-0.9-2-1.4-3.2-1.3c-0.7,0-1.5,0.1-2.1,0.3c-0.5,0.2-1,0.5-1.5,0.8c-0.3,0.2-0.7,0.5-1,0.8c-0.2,0.2-0.4,0.3-0.6,0.3
		c-0.2,0-0.4-0.1-0.5-0.3l-0.3-0.5c0.8-0.9,1.8-1.6,2.9-2.1c1.1-0.5,2.2-0.7,3.4-0.7c0.8,0,1.7,0.1,2.5,0.5c0.7,0.3,1.3,0.7,1.7,1.3
		c0.5,0.6,0.8,1.3,1.1,2c0.2,0.9,0.4,1.7,0.3,2.6V29H311.9z M304.9,28.1c0.6,0,1.3-0.1,1.9-0.2c0.6-0.1,1.1-0.3,1.6-0.6
		c0.5-0.3,0.9-0.6,1.4-0.9c0.4-0.4,0.8-0.8,1.2-1.2v-4.5c-1.4,0-2.9,0.2-4.3,0.4c-1,0.1-2,0.4-3,0.8c-0.7,0.3-1.3,0.7-1.7,1.2
		c-0.4,0.5-0.6,1.1-0.6,1.7c0,0.5,0.1,1,0.3,1.5c0.2,0.4,0.4,0.8,0.8,1c0.3,0.3,0.7,0.5,1.1,0.6C304,28.1,304.4,28.1,304.9,28.1z
		 M310.7,4L307,8.4c-0.1,0.1-0.2,0.2-0.3,0.2c-0.1,0-0.2,0.1-0.4,0.1h-1l2.8-4.2c0.1-0.2,0.2-0.3,0.4-0.4c0.2-0.1,0.4-0.1,0.6-0.1
		L310.7,4z"/>
	<path d="M318.4,29V13.5l-2.4-0.2c-0.3,0-0.5-0.2-0.5-0.4v-0.7h3v-1.5c0-1,0.1-2,0.5-2.9c0.3-0.8,0.8-1.6,1.4-2.2
		c0.6-0.6,1.4-1.1,2.2-1.4c1-0.3,2-0.5,3-0.5c0.4,0,0.8,0,1.2,0.1c0.3,0.1,0.7,0.1,1,0.3L327.6,5c0,0.1-0.1,0.2-0.2,0.2
		c-0.2,0-0.4,0-0.6-0.1c-0.3,0-0.7-0.1-1-0.1c-1.5-0.1-3.1,0.4-4.3,1.4c-1.1,1.2-1.6,2.7-1.5,4.3v1.4h10.2V29h-1.7V13.4h-8.5V29
		H318.4z"/>
	<path d="M347.9,14l-0.2,0.2c-0.1,0-0.1,0.1-0.2,0.1c-0.2,0-0.3-0.1-0.5-0.2c-0.3-0.2-0.5-0.4-0.8-0.5c-0.4-0.2-0.8-0.4-1.3-0.5
		c-0.6-0.2-1.2-0.3-1.8-0.2c-0.9,0-1.8,0.2-2.7,0.5c-0.8,0.3-1.5,0.9-2,1.5c-0.6,0.7-1,1.5-1.2,2.4c-0.3,1-0.4,2.1-0.4,3.2
		c0,1.1,0.1,2.2,0.4,3.2c0.2,0.9,0.7,1.7,1.2,2.4c0.5,0.6,1.2,1.1,1.9,1.5c0.8,0.3,1.6,0.5,2.5,0.5c0.7,0,1.4-0.1,2.1-0.3
		c0.5-0.2,1-0.4,1.4-0.7c0.3-0.2,0.6-0.4,0.9-0.7c0.1-0.1,0.3-0.2,0.5-0.3c0.1,0,0.3,0.1,0.4,0.2l0.5,0.6c-0.3,0.4-0.6,0.7-1,1
		c-0.4,0.3-0.9,0.6-1.4,0.8c-0.5,0.2-1.1,0.4-1.7,0.5c-0.6,0.1-1.3,0.2-1.9,0.2c-1,0-2.1-0.2-3-0.6c-0.9-0.4-1.7-1-2.4-1.8
		c-0.7-0.8-1.2-1.8-1.5-2.8c-0.7-2.4-0.7-5,0-7.4c0.3-1,0.8-2,1.5-2.8c0.7-0.8,1.5-1.4,2.5-1.8c1.1-0.5,2.2-0.7,3.4-0.7
		c1,0,2,0.2,3,0.5c0.9,0.3,1.6,0.8,2.3,1.5L347.9,14z"/>
	<path d="M363.5,29c-0.3,0-0.6-0.2-0.6-0.5l-0.2-2.2c-0.4,0.4-0.9,0.9-1.4,1.3c-0.5,0.4-1,0.7-1.5,0.9c-0.5,0.3-1.1,0.5-1.7,0.6
		c-0.7,0.1-1.3,0.2-2,0.2c-0.6,0-1.2-0.1-1.7-0.3c-0.5-0.2-1-0.4-1.5-0.8c-0.4-0.4-0.8-0.9-1-1.4c-0.3-0.6-0.4-1.3-0.4-2
		c0-0.7,0.2-1.4,0.6-2c0.5-0.7,1.2-1.3,2-1.7c1.1-0.5,2.3-0.9,3.4-1.1c1.7-0.3,3.4-0.5,5.1-0.5v-1.9c0.1-1.3-0.3-2.6-1-3.7
		c-0.8-0.9-2-1.4-3.2-1.3c-0.7,0-1.5,0.1-2.1,0.3c-0.5,0.2-1,0.5-1.5,0.8c-0.3,0.2-0.7,0.5-1,0.8c-0.2,0.2-0.4,0.3-0.6,0.3
		c-0.2,0-0.4-0.1-0.5-0.3l-0.3-0.5c0.8-0.9,1.8-1.6,2.9-2.1c1.1-0.5,2.2-0.7,3.4-0.7c0.8,0,1.7,0.1,2.4,0.5c0.7,0.3,1.3,0.7,1.7,1.3
		c0.5,0.6,0.8,1.3,1,2c0.2,0.9,0.4,1.7,0.4,2.6V29H363.5z M356.5,28.1c0.6,0,1.3-0.1,1.9-0.2c0.6-0.1,1.1-0.3,1.6-0.6
		c0.5-0.3,0.9-0.6,1.4-0.9c0.4-0.4,0.8-0.8,1.2-1.2v-4.5c-1.4,0-2.9,0.2-4.3,0.4c-1,0.2-2,0.4-2.9,0.8c-0.7,0.3-1.3,0.7-1.7,1.2
		c-0.4,0.5-0.6,1.1-0.6,1.7c0,0.5,0.1,1,0.3,1.5c0.2,0.4,0.4,0.8,0.8,1c0.3,0.3,0.7,0.5,1.1,0.6C355.6,28.1,356,28.1,356.5,28.1z"/>
</g>
</svg>
