<svg id="Outline" height="512" viewBox="0 0 512 512" width="512" xmlns="http://www.w3.org/2000/svg"><path d="m488 152h-24v-40a8 8 0 0 0 -8-8h-8v-40a8 8 0 0 0 -8-8h-400a8 8 0 0 0 -8 8v40h-8a8 8 0 0 0 0 16h8v32h-8a8 8 0 0 0 0 16h8v32h-8a8 8 0 0 0 0 16h8v32h-8a8 8 0 0 0 0 16h8v32h-8a8 8 0 0 0 0 16h8v32h-8a8 8 0 0 0 0 16h8v32h-8a8 8 0 0 0 0 16h8v40a8 8 0 0 0 8 8h400a8 8 0 0 0 8-8v-40h40a8 8 0 0 0 8-8v-240a8 8 0 0 0 -8-8zm-72-32h32v224h-32zm16-16h-16v-32h16zm-384 304h8a8 8 0 0 0 0-16h-8v-32h8a8 8 0 0 0 0-16h-8v-32h8a8 8 0 0 0 0-16h-8v-32h8a8 8 0 0 0 0-16h-8v-32h8a8 8 0 0 0 0-16h-8v-32h8a8 8 0 0 0 0-16h-8v-32h8a8 8 0 0 0 0-16h-8v-32h352v368h-352zm384 32h-16v-32h16zm48-48h-64v-32h40a8 8 0 0 0 8-8v-184h16z"/><path d="m328 151.852h-208a8 8 0 0 0 -8 8v192.148a8 8 0 0 0 8 8h208a8 8 0 0 0 8-8v-192.148a8 8 0 0 0 -8-8zm-8 16v154.955l-46.747-78.886a8 8 0 0 0 -13.286-.717l-48.882 65.266-32.047-26.623a8 8 0 0 0 -11.23 1l-39.808 47.243v-162.238zm-6.04 176.148h-176.76l37.722-44.77 32.408 26.923a8 8 0 0 0 11.516-1.357l46.746-62.414z"/><path d="m192 248a24 24 0 1 0 -24-24 24.027 24.027 0 0 0 24 24zm0-32a8 8 0 1 1 -8 8 8.009 8.009 0 0 1 8-8z"/></svg>